<?xml version="1.0" standalone="no"?><!DOCTYPE svg PUBLIC "-//W3C//DTD SVG 1.1//EN" "http://www.w3.org/Graphics/SVG/1.1/DTD/svg11.dtd"><svg class="icon" width="128px" height="128.00px" viewBox="0 0 1024 1024" version="1.1" xmlns="http://www.w3.org/2000/svg"><path fill="#ffffff" d="M816.013303 452.583917c-9.852001 109.223423 12.892743 212.973512 57.895712 318.304787-239.367146-49.989785-469.125549-13.257632-704.114027 39.529635 7.176149-48.651859 27.123411-89.397791 32.961634-133.670982C221.852477 535.292077 198.256325 389.336501 160.064616 254.205963c-12.162965-43.056895-20.190521-46.705785 18.244447-34.54282 139.144316 44.273192 304.925526 57.165934 450.272954 50.476303-4.378667 17.636299-8.878964 35.272598-13.257632 53.030527-117.615869 0.486519-235.231738 0.364889-350.536643-27.123412-25.663856-6.081482-33.083264 1.094667-25.663856 24.812448 42.327117 136.225205 40.381043 273.909966 8.757335 418.284357 167.970543-40.624302 332.657085-48.895118 498.195035-45.489488 28.218078 0.608148 37.82682-4.013778 27.853189-35.150968-22.136596-69.815418-30.529041-142.063428-23.596151-215.406105 20.068892 14.960447 43.056895 11.068298 65.680009 9.487112z"  /><path fill="#ffffff" d="M628.946906 324.994417c4.378667-17.636299 8.878964-35.272598 13.257631-53.030526 13.257632 1.216296 25.542226-9.487112 18.366077 28.096449-13.379261 69.937047 6.203112 74.194085 82.82979 75.288751 8.392446 0.12163 14.595558-1.824445 16.176743 8.149187 4.986816 32.718375 19.704003 26.150374 46.827414 27.60993 19.460744 1.094667 5.473334 16.541632 3.892149 25.907114-22.623114 1.581185-45.611118 5.473334-65.923269-9.608742-7.05452-13.86578-5.838223-15.325336-25.663856-15.811854-61.666231-0.973037-80.275567-29.434375-89.762679-86.600309z"  /></svg>